<svg data-v-423bf9ae="" xmlns="http://www.w3.org/2000/svg" viewBox="0 0 1544.9719285514318 193" class="fontAboveSlogan"><!----><!----><!----><g data-v-423bf9ae="" id="b3ccd5fc-66af-4958-9656-f72373ccf47a" fill="#39250B" transform="matrix(11.2149534709423,0,0,11.2149534709423,-3.776252533386696,-0.4085967372470023)"><path d="M5.40 10.05C2.63 10.05 2.07 7.69 2.07 5.53C2.07 2.53 3.16 1.15 5.40 1.15C5.95 1.15 6.64 1.25 7.22 1.41L7.90 3.29L8.48 3.19L8.48 1.29C7.52 0.73 6.66 0.46 5.40 0.46C1.99 0.46 0.42 3.01 0.42 5.60C0.42 8.19 1.76 10.74 5.40 10.74C6.57 10.74 7.78 10.42 8.48 9.91L8.48 7.91L7.90 7.81L7.18 9.79C6.65 9.95 5.91 10.05 5.40 10.05ZM12.56 3.81C10.49 3.81 9.27 5.12 9.27 7.22C9.27 9.32 10.35 10.65 12.56 10.65C14.78 10.65 15.85 9.38 15.85 7.22C15.85 5.07 14.63 3.81 12.56 3.81ZM12.56 4.33C13.73 4.33 14.50 5.39 14.50 7.18C14.50 8.96 13.75 10.14 12.56 10.14C11.37 10.14 10.63 8.95 10.63 7.18C10.63 5.42 11.40 4.33 12.56 4.33ZM23.06 4.76L23.98 4.47L23.87 3.96L21.71 3.96L21.62 4.47L22.53 4.76L20.66 9.70L20.66 8.89L19.03 4.76L19.92 4.47L19.82 3.96L16.80 3.96L16.69 4.47L17.60 4.76L19.95 10.65L20.90 10.50ZM26.99 9.70L26.99 3.96L26.35 3.81L24.86 3.96L24.96 4.47L25.68 4.47L25.68 9.70L24.75 10.00L24.86 10.50L27.79 10.50L27.90 10.00ZM26.29 0.74C25.89 0.74 25.54 1.08 25.54 1.50C25.54 1.92 25.89 2.25 26.29 2.25C26.71 2.25 27.06 1.92 27.06 1.50C27.06 1.08 26.71 0.74 26.29 0.74ZM33.73 9.39C33.33 9.79 32.89 10.00 32.31 10.00C31.14 10.00 30.42 8.82 30.42 7.14C30.42 5.46 31.02 4.47 32.38 4.47C32.87 4.47 33.35 4.65 33.73 4.86ZM33.75 10.00L33.98 10.50L35.85 10.50L35.95 10.00L35.04 9.70L35.04 0.20L34.41 0.04L32.79 0.20L32.89 0.70L33.73 0.70L33.73 4.14C33.26 3.93 32.77 3.81 32.30 3.81C30.24 3.81 28.95 5.21 28.95 7.28C28.95 9.37 30.02 10.65 32.23 10.65C32.91 10.65 33.49 10.25 33.75 10.00ZM40.22 2.98C40.22 4.89 41.43 5.57 42.50 6.03C43.60 6.50 45.30 7.18 45.30 8.53C45.30 9.51 44.38 10.05 43.01 10.05C42.55 10.05 41.94 9.86 41.55 9.65L40.85 7.81L40.26 7.91L40.26 9.91C40.96 10.42 41.96 10.74 43.11 10.74C45.57 10.74 46.59 9.62 46.59 8.08C46.59 6.45 45.35 5.66 43.88 4.91C43.08 4.51 41.52 3.89 41.52 2.88C41.52 1.96 42.14 1.15 43.40 1.15C43.95 1.15 44.41 1.23 44.88 1.40L45.56 3.29L46.14 3.19L46.14 1.29C45.36 0.81 44.51 0.46 43.41 0.46C41.66 0.46 40.22 1.27 40.22 2.98ZM52.72 0.46C49.60 0.46 48.05 3.01 48.05 5.60C48.05 8.19 49.38 10.74 52.72 10.74C56.06 10.74 57.39 8.50 57.39 5.60C57.39 2.70 55.83 0.46 52.72 0.46ZM52.72 1.15C54.81 1.15 55.75 2.62 55.75 5.53C55.75 8.43 54.85 10.05 52.72 10.05C50.60 10.05 49.70 8.51 49.70 5.53C49.70 2.53 50.62 1.15 52.72 1.15ZM61.43 1.29L62.71 1.29C64.22 1.29 64.81 2.31 64.81 3.71C64.81 4.87 63.99 6.02 62.68 6.02L62.02 6.02L62.02 6.61L62.64 6.61C64.55 6.61 66.25 5.89 66.25 3.71C66.25 1.89 65.20 0.70 63.17 0.70L58.83 0.70L58.72 1.29L59.95 1.75L59.95 9.45L58.74 9.91L58.84 10.50L62.54 10.50L62.65 9.91L61.43 9.45ZM67.93 4.59L68.40 0.70L68.01 0.46L67.07 0.70L67.54 4.59ZM71.51 10.65C73.14 10.65 74.06 9.88 74.06 8.69C74.06 7.46 73.00 6.99 72.00 6.57C71.34 6.29 70.50 5.94 70.50 5.31C70.50 4.73 71.01 4.33 71.76 4.33C72.21 4.33 72.69 4.41 73.00 4.56L73.28 5.57L73.78 5.47L73.78 4.31C73.18 4.00 72.53 3.81 71.92 3.81C70.39 3.81 69.40 4.54 69.40 5.67C69.40 6.78 70.24 7.25 71.18 7.69C71.96 8.04 72.94 8.37 72.94 9.06C72.94 9.73 72.30 10.14 71.40 10.14C71.11 10.14 70.66 10.02 70.35 9.91L69.89 8.55L69.37 8.65L69.37 10.14C70.08 10.49 70.91 10.65 71.51 10.65ZM82.53 1.29C84.91 1.29 86.00 3.12 86.00 5.50C86.00 7.88 84.91 9.91 82.53 9.91L81.31 9.91L81.31 1.29ZM82.49 10.50C86.00 10.50 87.64 8.25 87.64 5.53C87.64 2.81 86.03 0.70 82.53 0.70L78.71 0.70L78.61 1.29L79.83 1.75L79.83 9.45L78.62 9.91L78.72 10.50ZM90.13 6.54C90.24 5.24 90.80 4.33 92.01 4.33C92.97 4.33 93.51 4.87 93.51 5.89C93.51 6.09 93.46 6.36 93.41 6.54ZM92.34 10.00C90.83 10.00 90.10 8.79 90.10 7.11L90.10 7.04L94.58 7.04C94.70 6.80 94.82 6.38 94.82 6.01C94.82 4.66 93.63 3.81 92.01 3.81C90.05 3.81 88.62 5.07 88.62 7.22C88.62 9.30 89.78 10.65 92.26 10.65C93.17 10.65 94.07 10.37 94.67 9.83L94.35 9.37C93.77 9.73 93.09 10.00 92.34 10.00ZM97.68 2.34L97.03 2.18L96.45 3.65L95.45 3.96L95.55 4.47L96.36 4.47L96.36 8.85C96.36 9.87 96.92 10.65 98.21 10.65C99.01 10.65 99.41 10.33 99.88 9.84L99.55 9.46C99.26 9.79 98.95 10.00 98.45 10.00C98.03 10.00 97.68 9.62 97.68 8.96L97.68 4.47L99.41 4.47L99.51 3.96L97.68 3.96ZM101.95 6.54C102.06 5.24 102.62 4.33 103.82 4.33C104.79 4.33 105.32 4.87 105.32 5.89C105.32 6.09 105.28 6.36 105.22 6.54ZM104.16 10.00C102.65 10.00 101.92 8.79 101.92 7.11L101.92 7.04L106.40 7.04C106.51 6.80 106.64 6.38 106.64 6.01C106.64 4.66 105.45 3.81 103.82 3.81C101.86 3.81 100.44 5.07 100.44 7.22C100.44 9.30 101.60 10.65 104.08 10.65C104.99 10.65 105.88 10.37 106.48 9.83L106.16 9.37C105.59 9.73 104.90 10.00 104.16 10.00ZM111.33 4.33C111.69 4.33 112.18 4.41 112.56 4.56L112.83 5.57L113.33 5.47L113.33 4.31C112.63 3.96 111.97 3.81 111.29 3.81C109.10 3.81 107.69 5.07 107.69 7.24C107.69 9.31 108.78 10.65 111.26 10.65C112.17 10.65 112.91 10.37 113.51 9.83L113.19 9.37C112.62 9.73 112.07 10.00 111.34 10.00C109.59 10.00 109.16 8.64 109.16 6.96C109.16 5.31 109.93 4.33 111.33 4.33ZM116.19 2.34L115.54 2.18L114.95 3.65L113.96 3.96L114.06 4.47L114.87 4.47L114.87 8.85C114.87 9.87 115.43 10.65 116.72 10.65C117.52 10.65 117.92 10.33 118.38 9.84L118.06 9.46C117.77 9.79 117.46 10.00 116.96 10.00C116.54 10.00 116.19 9.62 116.19 8.96L116.19 4.47L117.92 4.47L118.02 3.96L116.19 3.96ZM121.18 9.70L121.18 3.96L120.54 3.81L119.06 3.96L119.15 4.47L119.87 4.47L119.87 9.70L118.94 10.00L119.06 10.50L121.98 10.50L122.09 10.00ZM120.48 0.74C120.08 0.74 119.73 1.08 119.73 1.50C119.73 1.92 120.08 2.25 120.48 2.25C120.90 2.25 121.25 1.92 121.25 1.50C121.25 1.08 120.90 0.74 120.48 0.74ZM126.50 3.81C124.43 3.81 123.21 5.12 123.21 7.22C123.21 9.32 124.29 10.65 126.50 10.65C128.73 10.65 129.79 9.38 129.79 7.22C129.79 5.07 128.58 3.81 126.50 3.81ZM126.50 4.33C127.68 4.33 128.45 5.39 128.45 7.18C128.45 8.96 127.69 10.14 126.50 10.14C125.31 10.14 124.57 8.95 124.57 7.18C124.57 5.42 125.34 4.33 126.50 4.33ZM133.07 9.70L133.07 4.84C133.52 4.63 134.02 4.47 134.57 4.47C135.31 4.47 135.95 5.00 135.95 5.89L135.95 9.70L135.04 10.00L135.16 10.50L138.08 10.50L138.18 10.00L137.27 9.70L137.27 6.10C137.27 4.62 136.42 3.81 134.89 3.81C134.16 3.81 133.66 4.05 133.07 4.33L132.57 3.81L130.96 3.96L131.05 4.47L131.75 4.47L131.75 9.70L130.84 10.00L130.94 10.50L133.88 10.50L133.99 10.00Z"></path></g><!----><!----><g data-v-423bf9ae="" id="40ade874-08af-4f87-a65c-00e688199e84" fill="#39250B" transform="matrix(5.246896936846568,0,0,5.246896936846568,157.977678090292,129.4525801780198)"><path d="M4.82 5.50L4.82 5.50Q5.27 4.74 5.48 3.53L5.48 3.53L5.48 3.53Q5.71 2.15 5.22 1.57L5.22 1.57L5.22 1.57Q4.93 1.22 4.18 1.27L4.18 1.27L4.18 1.27Q3.24 1.33 2.34 1.85L2.34 1.85L2.34 1.85Q1.09 2.59 0.49 4.34L0.49 4.34L0.49 4.34Q-0.13 6.10 0.49 7.18L0.49 7.18L0.49 7.18Q0.78 7.68 2.15 8.17L2.15 8.17L2.15 8.17Q2.72 8.37 2.93 8.48L2.93 8.48L2.93 8.48Q3.36 8.74 3.45 9.11L3.45 9.11L3.45 9.11Q3.55 9.50 3.21 10.17L3.21 10.17L3.21 10.17Q3.03 10.51 2.75 10.76L2.75 10.76L2.75 10.76Q2.63 10.87 2.47 10.97L2.47 10.97L2.47 10.97Q2.40 11.02 2.38 11.03L2.38 11.03L2.38 11.03Q2.32 11.07 2.26 11.09L2.26 11.09L2.26 11.09Q2.35 11.05 2.23 11.10L2.23 11.10L2.23 11.10Q2.24 11.10 2.30 11.09L2.30 11.09L2.30 11.09Q2.26 11.09 2.21 11.09L2.21 11.09L2.21 11.09Q2.20 11.10 2.11 11.09L2.11 11.09L2.11 11.09Q2.06 11.09 1.91 11.05L1.91 11.05L1.91 11.05Q1.55 10.97 1.25 10.64L1.25 10.64L1.25 10.64Q1.03 10.39 0.94 9.93L0.94 9.93L0.94 9.93Q0.84 9.44 1.07 9.28L1.07 9.28L1.07 9.28Q1.26 9.13 1.24 9.06L1.24 9.06L1.24 9.06Q1.22 8.97 0.98 8.96L0.98 8.96L0.98 8.96Q0.36 8.95-0.05 9.24L-0.05 9.24L-0.05 9.24Q-0.44 9.53-0.51 9.86L-0.51 9.86L-0.51 9.86Q-0.59 10.20-0.44 10.62L-0.44 10.62L-0.44 10.62Q-0.16 11.36 0.70 11.61L0.70 11.61L0.70 11.61Q1.59 11.87 2.86 11.37L2.86 11.37L2.86 11.37Q3.88 10.96 4.44 10.24L4.44 10.24L4.44 10.24Q4.82 9.76 4.91 9.24L4.91 9.24L4.91 9.24Q5.01 8.62 4.63 8.23L4.63 8.23L4.63 8.23Q4.36 7.96 3.80 7.75L3.80 7.75L3.80 7.75Q3.65 7.70 3.34 7.59L3.34 7.59L3.34 7.59Q3.04 7.50 2.91 7.44L2.91 7.44L2.91 7.44Q2.38 7.23 2.10 6.97L2.10 6.97L2.10 6.97Q1.80 6.69 1.70 5.96L1.70 5.96L1.70 5.96Q1.50 4.53 2.45 2.97L2.45 2.97L2.45 2.97Q2.86 2.29 3.37 1.95L3.37 1.95L3.37 1.95Q3.42 1.91 3.51 1.86L3.51 1.86L3.51 1.86Q3.51 1.86 3.56 1.84L3.56 1.84L3.56 1.84Q3.55 1.84 3.59 1.83L3.59 1.83L3.59 1.83Q3.56 1.84 3.60 1.83L3.60 1.83L3.60 1.83Q3.53 1.85 3.45 1.85L3.45 1.85L3.45 1.85Q3.47 1.85 3.46 1.85L3.46 1.85L3.48 1.85L3.48 1.85Q3.53 1.86 3.62 1.89L3.62 1.89L3.62 1.89Q3.63 1.89 3.73 1.96L3.73 1.96L3.73 1.96Q3.79 2.01 3.83 2.06L3.83 2.06L3.83 2.06Q3.95 2.20 4.02 2.45L4.02 2.45L4.02 2.45Q4.14 2.84 4.07 3.49L4.07 3.49L4.07 3.49Q3.95 4.81 3.38 5.76L3.38 5.76L3.38 5.76Q3.29 5.90 3.60 5.91L3.60 5.91L3.60 5.91Q3.79 5.92 3.96 5.89L3.96 5.89L3.96 5.89Q4.66 5.76 4.82 5.50L4.82 5.50ZM16.91 2.35L16.91 2.35Q15.96 2.17 14.95 2.15L14.95 2.15L14.95 2.15Q14.85 2.03 14.38 2.11L14.38 2.11L14.38 2.11Q14.28 2.13 14.16 2.16L14.16 2.16L14.16 2.16Q13.10 2.22 12.06 2.46L12.06 2.46L12.06 2.46Q11.32 2.63 11.39 2.88L11.39 2.88L11.39 2.88Q11.44 3.08 12.16 2.91L12.16 2.91L12.16 2.91Q12.17 2.91 12.18 2.90L12.18 2.90L12.18 2.90Q12.20 2.90 12.21 2.89L12.21 2.89L12.21 2.89Q12.28 2.88 12.44 2.85L12.44 2.85L12.44 2.85Q12.61 2.82 12.83 2.80L12.83 2.80L12.83 2.80Q13.12 2.76 13.45 2.75L13.45 2.75L13.45 2.75Q12.03 7.40 11.63 10.96L11.63 10.96L11.63 10.96Q11.63 11.02 11.85 11.03L11.85 11.03L11.85 11.03Q12.07 11.04 12.35 10.99L12.35 10.99L12.35 10.99Q13.07 10.86 13.10 10.56L13.10 10.56L13.10 10.56Q13.47 7.19 14.79 2.78L14.79 2.78L14.79 2.78Q15.26 2.82 15.70 2.91L15.70 2.91L15.70 2.91Q16.14 2.99 16.73 2.72L16.73 2.72L16.73 2.72Q16.88 2.65 16.98 2.54L16.98 2.54L16.98 2.54Q17.12 2.39 16.91 2.35L16.91 2.35ZM25.48 7.89L25.48 7.89Q25.38 7.90 24.48 7.84L24.48 7.84L24.48 7.84Q24.89 6.63 25.35 5.57L25.35 5.57L25.35 5.57Q25.51 5.18 26.06 3.95L26.06 3.95L26.06 3.95Q26.04 4.61 25.85 7.85L25.85 7.85L25.85 7.85Q25.68 7.87 25.48 7.89L25.48 7.89ZM27.30 1.18L27.30 1.18Q27.11 1.09 26.73 1.16L26.73 1.16L26.73 1.16Q26.09 1.27 25.87 1.55L25.87 1.55L25.87 1.55Q25.68 1.80 24.90 3.58L24.90 3.58L24.90 3.58Q24.76 3.90 24.40 4.70L24.40 4.70L24.40 4.70Q24.08 5.42 23.91 5.83L23.91 5.83L23.91 5.83Q23.49 6.79 23.11 7.86L23.11 7.86L23.11 7.86Q22.19 7.97 21.54 8.37L21.54 8.37L21.54 8.37Q21.36 8.48 21.39 8.58L21.39 8.58L21.39 8.58Q21.42 8.67 21.62 8.68L21.62 8.68L21.62 8.68Q22.14 8.70 22.61 8.43L22.61 8.43L22.61 8.43Q22.76 8.41 22.80 8.41L22.80 8.41L22.80 8.41Q22.87 8.41 22.93 8.41L22.93 8.41L22.93 8.41Q22.61 9.39 22.29 10.53L22.29 10.53L22.29 10.53Q22.22 10.79 22.87 10.67L22.87 10.67L22.87 10.67Q23.17 10.62 23.43 10.49L23.43 10.49L23.43 10.49Q23.70 10.37 23.73 10.27L23.73 10.27L23.73 10.27Q23.99 9.32 24.27 8.48L24.27 8.48L24.27 8.48Q24.56 8.50 24.76 8.47L24.76 8.47L24.76 8.47Q25.46 8.39 25.82 8.46L25.82 8.46L25.82 8.46Q25.71 10.55 25.71 12.02L25.71 12.02L25.71 12.02Q25.71 12.10 25.94 12.11L25.94 12.11L25.94 12.11Q26.15 12.12 26.44 12.06L26.44 12.06L26.44 12.06Q27.17 11.91 27.17 11.62L27.17 11.62L27.17 11.62Q27.17 9.90 27.38 6.45L27.38 6.45L27.38 6.45Q27.58 3.00 27.58 1.27L27.58 1.27L27.58 1.27Q27.58 1.18 27.30 1.18L27.30 1.18ZM40.85 1.12L40.85 1.12Q40.82 0.90 40.08 1.07L40.08 1.07L40.08 1.07Q39.35 1.25 39.39 1.51L39.39 1.51L39.39 1.51Q39.57 2.73 39.35 4.12L39.35 4.12L39.35 4.12Q39.08 5.76 38.33 6.75L38.33 6.75L38.33 6.75Q38.18 6.95 37.93 7.16L37.93 7.16L37.93 7.16Q37.86 7.23 37.75 7.29L37.75 7.29L37.75 7.29Q37.75 7.29 37.67 7.34L37.67 7.34L37.67 7.34L37.67 7.34Q37.67 7.34 37.67 7.34L37.67 7.34L37.67 7.34Q37.59 7.36 37.52 7.38L37.52 7.38L37.52 7.37L37.52 7.37Q37.51 7.37 37.50 7.37L37.50 7.37L37.50 7.37Q37.47 7.36 37.40 7.35L37.40 7.35L37.40 7.35Q37.39 7.35 37.37 7.33L37.37 7.33L37.37 7.33Q37.36 7.33 37.34 7.33L37.34 7.33L37.34 7.33Q36.74 7.06 36.75 5.83L36.75 5.83L36.75 5.83Q36.75 4.47 37.71 1.59L37.71 1.59L37.71 1.59Q37.80 1.34 37.13 1.46L37.13 1.46L37.13 1.46Q36.35 1.60 36.27 1.85L36.27 1.85L36.27 1.85Q35.40 4.44 35.30 5.87L35.30 5.87L35.30 5.87Q35.21 7.12 35.72 7.65L35.72 7.65L35.72 7.65Q35.99 7.94 36.60 7.96L36.60 7.96L36.60 7.96Q36.74 7.97 36.90 7.96L36.90 7.96L36.90 7.96Q36.85 8.59 36.32 10.68L36.32 10.68L36.32 10.68Q36.26 10.94 36.90 10.82L36.90 10.82L36.90 10.82Q37.21 10.77 37.46 10.65L37.46 10.65L37.46 10.65Q37.74 10.52 37.76 10.42L37.76 10.42L37.76 10.42Q38.30 8.28 38.36 7.59L38.36 7.59L38.36 7.59Q38.40 7.57 38.41 7.57L38.41 7.57L38.41 7.57Q40.00 6.90 40.61 4.67L40.61 4.67L40.61 4.67Q41.12 2.84 40.85 1.12L40.85 1.12ZM62.44 5.50L62.44 5.50Q62.89 4.74 63.10 3.53L63.10 3.53L63.10 3.53Q63.33 2.15 62.84 1.57L62.84 1.57L62.84 1.57Q62.55 1.22 61.80 1.27L61.80 1.27L61.80 1.27Q60.86 1.33 59.96 1.85L59.96 1.85L59.96 1.85Q58.71 2.59 58.11 4.34L58.11 4.34L58.11 4.34Q57.49 6.10 58.11 7.18L58.11 7.18L58.11 7.18Q58.40 7.68 59.77 8.17L59.77 8.17L59.77 8.17Q60.34 8.37 60.55 8.48L60.55 8.48L60.55 8.48Q60.98 8.74 61.07 9.11L61.07 9.11L61.07 9.11Q61.17 9.50 60.83 10.17L60.83 10.17L60.83 10.17Q60.65 10.51 60.37 10.76L60.37 10.76L60.37 10.76Q60.25 10.87 60.09 10.97L60.09 10.97L60.09 10.97Q60.02 11.02 60.00 11.03L60.00 11.03L60.00 11.03Q59.94 11.07 59.88 11.09L59.88 11.09L59.88 11.09Q59.97 11.05 59.85 11.10L59.85 11.10L59.85 11.10Q59.86 11.10 59.92 11.09L59.92 11.09L59.92 11.09Q59.88 11.09 59.83 11.09L59.83 11.09L59.83 11.09Q59.82 11.10 59.73 11.09L59.73 11.09L59.73 11.09Q59.68 11.09 59.53 11.05L59.53 11.05L59.53 11.05Q59.17 10.97 58.87 10.64L58.87 10.64L58.87 10.64Q58.65 10.39 58.56 9.93L58.56 9.93L58.56 9.93Q58.46 9.44 58.69 9.28L58.69 9.28L58.69 9.28Q58.88 9.13 58.86 9.06L58.86 9.06L58.86 9.06Q58.84 8.97 58.60 8.96L58.60 8.96L58.60 8.96Q57.98 8.95 57.57 9.24L57.57 9.24L57.57 9.24Q57.18 9.53 57.11 9.86L57.11 9.86L57.11 9.86Q57.03 10.20 57.18 10.62L57.18 10.62L57.18 10.62Q57.46 11.36 58.32 11.61L58.32 11.61L58.32 11.61Q59.21 11.87 60.48 11.37L60.48 11.37L60.48 11.37Q61.50 10.96 62.06 10.24L62.06 10.24L62.06 10.24Q62.44 9.76 62.53 9.24L62.53 9.24L62.53 9.24Q62.63 8.62 62.25 8.23L62.25 8.23L62.25 8.23Q61.98 7.96 61.42 7.75L61.42 7.75L61.42 7.75Q61.27 7.70 60.96 7.59L60.96 7.59L60.96 7.59Q60.66 7.50 60.53 7.44L60.53 7.44L60.53 7.44Q60.00 7.23 59.72 6.97L59.72 6.97L59.72 6.97Q59.42 6.69 59.32 5.96L59.32 5.96L59.32 5.96Q59.12 4.53 60.07 2.97L60.07 2.97L60.07 2.97Q60.48 2.29 60.99 1.95L60.99 1.95L60.99 1.95Q61.04 1.91 61.13 1.86L61.13 1.86L61.13 1.86Q61.13 1.86 61.18 1.84L61.18 1.84L61.18 1.84Q61.17 1.84 61.21 1.83L61.21 1.83L61.21 1.83Q61.18 1.84 61.22 1.83L61.22 1.83L61.22 1.83Q61.15 1.85 61.07 1.85L61.07 1.85L61.07 1.85Q61.09 1.85 61.08 1.85L61.08 1.85L61.10 1.85L61.10 1.85Q61.15 1.86 61.24 1.89L61.24 1.89L61.24 1.89Q61.25 1.89 61.35 1.96L61.35 1.96L61.35 1.96Q61.41 2.01 61.46 2.06L61.46 2.06L61.46 2.06Q61.57 2.20 61.64 2.45L61.64 2.45L61.64 2.45Q61.76 2.84 61.69 3.49L61.69 3.49L61.69 3.49Q61.57 4.81 61.00 5.76L61.00 5.76L61.00 5.76Q60.91 5.90 61.22 5.91L61.22 5.91L61.22 5.91Q61.41 5.92 61.58 5.89L61.58 5.89L61.58 5.89Q62.28 5.76 62.44 5.50L62.44 5.50ZM72.54 7.89L72.54 7.89Q72.43 7.90 71.53 7.84L71.53 7.84L71.53 7.84Q71.94 6.63 72.40 5.57L72.40 5.57L72.40 5.57Q72.56 5.18 73.11 3.95L73.11 3.95L73.11 3.95Q73.09 4.61 72.91 7.85L72.91 7.85L72.91 7.85Q72.73 7.87 72.54 7.89L72.54 7.89ZM74.35 1.18L74.35 1.18Q74.16 1.09 73.78 1.16L73.78 1.16L73.78 1.16Q73.14 1.27 72.93 1.55L72.93 1.55L72.93 1.55Q72.73 1.80 71.95 3.58L71.95 3.58L71.95 3.58Q71.81 3.90 71.45 4.70L71.45 4.70L71.45 4.70Q71.13 5.42 70.96 5.83L70.96 5.83L70.96 5.83Q70.54 6.79 70.16 7.86L70.16 7.86L70.16 7.86Q69.24 7.97 68.59 8.37L68.59 8.37L68.59 8.37Q68.41 8.48 68.44 8.58L68.44 8.58L68.44 8.58Q68.47 8.67 68.67 8.68L68.67 8.68L68.67 8.68Q69.19 8.70 69.67 8.43L69.67 8.43L69.67 8.43Q69.81 8.41 69.86 8.41L69.86 8.41L69.86 8.41Q69.92 8.41 69.98 8.41L69.98 8.41L69.98 8.41Q69.66 9.39 69.34 10.53L69.34 10.53L69.34 10.53Q69.27 10.79 69.92 10.67L69.92 10.67L69.92 10.67Q70.23 10.62 70.48 10.49L70.48 10.49L70.48 10.49Q70.75 10.37 70.78 10.27L70.78 10.27L70.78 10.27Q71.05 9.32 71.32 8.48L71.32 8.48L71.32 8.48Q71.61 8.50 71.81 8.47L71.81 8.47L71.81 8.47Q72.52 8.39 72.87 8.46L72.87 8.46L72.87 8.46Q72.76 10.55 72.76 12.02L72.76 12.02L72.76 12.02Q72.76 12.10 72.99 12.11L72.99 12.11L72.99 12.11Q73.21 12.12 73.49 12.06L73.49 12.06L73.49 12.06Q74.22 11.91 74.22 11.62L74.22 11.62L74.22 11.62Q74.22 9.90 74.43 6.45L74.43 6.45L74.43 6.45Q74.63 3.00 74.63 1.27L74.63 1.27L74.63 1.27Q74.63 1.18 74.35 1.18L74.35 1.18ZM87.72 1.59L87.72 1.59Q86.62 1.45 84.94 1.75L84.94 1.75L84.94 1.75Q84.94 1.74 84.95 1.70L84.95 1.70L84.95 1.70Q84.96 1.66 84.96 1.64L84.96 1.64L84.96 1.64Q85.03 1.39 84.38 1.50L84.38 1.50L84.38 1.50Q84.08 1.56 83.83 1.67L83.83 1.67L83.83 1.67Q83.56 1.80 83.53 1.90L83.53 1.90L83.53 1.90Q83.54 1.88 83.48 2.08L83.48 2.08L83.48 2.08Q83.29 2.18 83.23 2.30L83.23 2.30L83.23 2.30Q83.16 2.43 83.38 2.45L83.38 2.45L83.38 2.45Q82.11 7.25 81.60 10.98L81.60 10.98L81.60 10.98Q81.59 11.10 81.97 11.07L81.97 11.07L81.97 11.07Q82.22 11.05 82.39 11.00L82.39 11.00L82.39 11.00Q83.03 10.83 83.06 10.59L83.06 10.59L83.06 10.59Q83.28 8.95 83.64 7.16L83.64 7.16L83.64 7.16Q83.58 7.17 84.64 7.09L84.64 7.09L84.64 7.09Q85.28 7.05 85.61 6.75L85.61 6.75L85.61 6.75Q85.77 6.60 85.58 6.54L85.58 6.54L85.58 6.54Q85.45 6.50 85.27 6.51L85.27 6.51L85.27 6.51Q84.14 6.60 83.75 6.66L83.75 6.66L83.75 6.66Q84.16 4.65 84.81 2.24L84.81 2.24L84.81 2.24Q85.83 2.06 86.52 2.15L86.52 2.15L86.52 2.15Q86.99 2.21 87.53 1.96L87.53 1.96L87.53 1.96Q87.68 1.89 87.79 1.78L87.79 1.78L87.79 1.78Q87.94 1.62 87.72 1.59L87.72 1.59ZM97.69 1.42L97.69 1.42Q96.98 1.19 95.80 1.57L95.80 1.57L95.80 1.57Q94.29 2.06 93.73 3.77L93.73 3.77L93.73 3.77Q93.38 4.83 93.56 6.11L93.56 6.11L93.56 6.11Q93.65 6.76 93.91 7.16L93.91 7.16L93.91 7.16Q93.50 7.38 93.20 7.70L93.20 7.70L93.20 7.70Q92.20 8.80 92.31 10.01L92.31 10.01L92.31 10.01Q92.38 10.70 92.86 11.11L92.86 11.11L92.86 11.11Q93.26 11.44 94.08 11.42L94.08 11.42L94.08 11.42Q94.92 11.39 95.62 10.95L95.62 10.95L95.62 10.95Q96.37 10.49 96.67 9.76L96.67 9.76L96.67 9.76Q96.74 9.61 96.46 9.60L96.46 9.60L96.46 9.60Q96.28 9.59 96.09 9.63L96.09 9.63L96.09 9.63Q95.34 9.76 95.24 10.02L95.24 10.02L95.24 10.02Q95.04 10.51 94.69 10.80L94.69 10.80L94.69 10.80Q94.68 10.81 94.66 10.82L94.66 10.82L94.66 10.82Q94.62 10.81 94.61 10.81L94.61 10.81L94.61 10.81Q94.54 10.79 94.46 10.75L94.46 10.75L94.46 10.75Q94.29 10.68 94.14 10.52L94.14 10.52L94.14 10.52Q93.85 10.23 93.78 9.63L93.78 9.63L93.78 9.63Q93.68 8.83 94.31 7.86L94.31 7.86L94.31 7.86Q94.39 7.74 94.49 7.62L94.49 7.62L94.49 7.62Q94.71 7.70 94.98 7.72L94.98 7.72L94.98 7.72Q95.38 7.74 95.87 7.51L95.87 7.51L95.87 7.51Q96.29 7.32 96.14 7.18L96.14 7.18L96.14 7.18Q95.85 6.90 95.43 6.84L95.43 6.84L95.43 6.84Q95.39 6.79 95.35 6.75L95.35 6.75L95.35 6.75Q95.15 6.45 95.04 5.89L95.04 5.89L95.04 5.89Q94.85 4.89 95.03 4.00L95.03 4.00L95.03 4.00Q95.30 2.70 96.07 2.04L96.07 2.04L96.07 2.04Q96.12 2.00 96.22 1.93L96.22 1.93L96.22 1.93Q96.22 1.93 96.22 1.93L96.22 1.93L96.22 1.93Q96.35 1.94 96.33 1.93L96.33 1.93L96.33 1.93Q96.91 2.02 96.80 2.62L96.80 2.62L96.80 2.62Q96.75 2.86 97.38 2.75L97.38 2.75L97.38 2.75Q97.69 2.69 97.94 2.58L97.94 2.58L97.94 2.58Q98.22 2.45 98.24 2.36L98.24 2.36L98.24 2.36Q98.38 1.63 97.69 1.42L97.69 1.42ZM116.89 7.89L116.89 7.89Q116.79 7.90 115.88 7.84L115.88 7.84L115.88 7.84Q116.29 6.63 116.75 5.57L116.75 5.57L116.75 5.57Q116.92 5.18 117.46 3.95L117.46 3.95L117.46 3.95Q117.44 4.61 117.26 7.85L117.26 7.85L117.26 7.85Q117.09 7.87 116.89 7.89L116.89 7.89ZM118.70 1.18L118.70 1.18Q118.51 1.09 118.13 1.16L118.13 1.16L118.13 1.16Q117.49 1.27 117.28 1.55L117.28 1.55L117.28 1.55Q117.08 1.80 116.30 3.58L116.30 3.58L116.30 3.58Q116.16 3.90 115.80 4.70L115.80 4.70L115.80 4.70Q115.49 5.42 115.31 5.83L115.31 5.83L115.31 5.83Q114.89 6.79 114.52 7.86L114.52 7.86L114.52 7.86Q113.59 7.97 112.94 8.37L112.94 8.37L112.94 8.37Q112.77 8.48 112.79 8.58L112.79 8.58L112.79 8.58Q112.82 8.67 113.03 8.68L113.03 8.68L113.03 8.68Q113.54 8.70 114.02 8.43L114.02 8.43L114.02 8.43Q114.16 8.41 114.21 8.41L114.21 8.41L114.21 8.41Q114.27 8.41 114.33 8.41L114.33 8.41L114.33 8.41Q114.01 9.39 113.69 10.53L113.69 10.53L113.69 10.53Q113.62 10.79 114.28 10.67L114.28 10.67L114.28 10.67Q114.58 10.62 114.83 10.49L114.83 10.49L114.83 10.49Q115.10 10.37 115.13 10.27L115.13 10.27L115.13 10.27Q115.40 9.32 115.67 8.48L115.67 8.48L115.67 8.48Q115.96 8.50 116.16 8.47L116.16 8.47L116.16 8.47Q116.87 8.39 117.22 8.46L117.22 8.46L117.22 8.46Q117.11 10.55 117.11 12.02L117.11 12.02L117.11 12.02Q117.11 12.10 117.34 12.11L117.34 12.11L117.34 12.11Q117.56 12.12 117.84 12.06L117.84 12.06L117.84 12.06Q118.58 11.91 118.58 11.62L118.58 11.62L118.58 11.62Q118.58 9.90 118.78 6.45L118.78 6.45L118.78 6.45Q118.98 3.00 118.98 1.27L118.98 1.27L118.98 1.27Q118.98 1.18 118.70 1.18L118.70 1.18ZM132.36 0.74L132.36 0.74Q132.05 0.79 131.80 0.91L131.80 0.91L131.80 0.91Q131.52 1.04 131.50 1.13L131.50 1.13L131.50 1.13Q130.61 3.96 129.99 7.39L129.99 7.39L129.99 7.39Q129.91 6.88 129.79 6.21L129.79 6.21L129.79 6.21Q129.50 4.44 129.45 4.05L129.45 4.05L129.45 4.05Q129.30 2.77 129.11 2.37L129.11 2.37L129.11 2.37Q129.11 2.37 129.10 2.35L129.10 2.35L129.10 2.34L129.10 2.34Q129.10 2.34 129.10 2.33L129.10 2.33L129.10 2.33Q129.14 2.08 128.52 2.20L128.52 2.20L128.52 2.20Q128.21 2.26 127.96 2.37L127.96 2.37L127.96 2.37Q127.67 2.51 127.66 2.60L127.66 2.60L127.66 2.60Q127.48 3.71 126.83 6.73L126.83 6.73L126.83 6.73Q126.29 9.34 126.08 10.89L126.08 10.89L126.08 10.89Q126.07 11.01 126.45 10.98L126.45 10.98L126.45 10.98Q126.70 10.96 126.88 10.91L126.88 10.91L126.88 10.91Q127.52 10.74 127.54 10.50L127.54 10.50L127.54 10.50Q127.74 8.97 128.30 6.38L128.30 6.38L128.30 6.38Q128.32 6.54 128.33 6.61L128.33 6.61L128.33 6.61Q128.55 7.90 128.73 8.95L128.73 8.95L128.73 8.95Q128.99 10.45 129.21 11.09L129.21 11.09L129.21 11.09Q129.27 11.24 129.61 11.21L129.61 11.21L129.61 11.21Q129.92 11.18 130.26 11.05L130.26 11.05L130.26 11.05Q130.85 10.89 130.88 10.65L130.88 10.65L130.88 10.65Q131.65 5.00 132.94 0.87L132.94 0.87L132.94 0.87Q133.02 0.62 132.36 0.74L132.36 0.74ZM143.72 3.48L143.72 3.48Q143.68 1.70 142.83 1.01L142.83 1.01L142.83 1.01Q142.37 0.64 141.47 0.68L141.47 0.68L141.47 0.68Q140.47 0.72 139.22 1.40L139.22 1.40L139.22 1.40Q139.04 1.50 139.07 1.60L139.07 1.60L139.07 1.60Q139.10 1.70 139.30 1.71L139.30 1.71L139.30 1.71Q139.80 1.72 140.33 1.44L140.33 1.44L140.33 1.44Q140.35 1.43 140.37 1.42L140.37 1.42L140.37 1.42Q140.41 1.39 140.49 1.35L140.49 1.35L140.49 1.35Q140.53 1.34 140.61 1.31L140.61 1.31L140.61 1.31Q140.64 1.29 140.75 1.26L140.75 1.26L140.75 1.26L140.75 1.26Q140.76 1.25 140.76 1.26L140.76 1.26L140.76 1.26Q140.77 1.25 140.79 1.25L140.79 1.25L140.79 1.25Q140.82 1.25 140.86 1.26L140.86 1.26L140.86 1.26Q140.87 1.26 140.89 1.26L140.89 1.26L140.89 1.26Q140.94 1.26 140.94 1.26L140.94 1.26L140.94 1.26Q141.02 1.28 141.12 1.31L141.12 1.31L141.12 1.31Q141.13 1.31 141.13 1.31L141.13 1.31L141.13 1.31Q141.13 1.31 141.13 1.31L141.13 1.31L141.13 1.31Q141.16 1.33 141.21 1.35L141.21 1.35L141.21 1.35Q141.26 1.37 141.35 1.43L141.35 1.43L141.35 1.43Q141.48 1.51 141.61 1.65L141.61 1.65L141.61 1.65Q141.80 1.85 141.96 2.23L141.96 2.23L141.96 2.23Q142.56 3.66 142.02 6.11L142.02 6.11L142.02 6.11Q141.67 7.70 140.96 8.97L140.96 8.97L140.96 8.97Q140.61 9.60 140.21 10.03L140.21 10.03L140.21 10.03Q140.03 10.22 139.82 10.39L139.82 10.39L139.82 10.39Q140.90 5.68 141.37 1.78L141.37 1.78L141.37 1.78Q141.37 1.71 141.16 1.70L141.16 1.70L141.16 1.70Q140.94 1.69 140.66 1.74L140.66 1.74L140.66 1.74Q139.94 1.87 139.90 2.17L139.90 2.17L139.90 2.17Q139.43 6.19 138.26 11.16L138.26 11.16L138.26 11.16Q138.20 11.42 138.84 11.30L138.84 11.30L138.84 11.30Q139.14 11.25 139.39 11.12L139.39 11.12L139.39 11.12Q139.59 11.03 139.65 10.97L139.65 10.97L139.65 10.97Q139.92 10.93 140.30 10.77L140.30 10.77L140.30 10.77Q141.87 10.12 142.85 7.78L142.85 7.78L142.85 7.78Q143.76 5.63 143.72 3.48L143.72 3.48ZM165.50 1.31L165.50 1.31Q165.20 1.36 164.94 1.48L164.94 1.48L164.94 1.48Q164.66 1.61 164.64 1.70L164.64 1.70L164.64 1.70Q164.45 2.55 163.99 4.25L163.99 4.25L163.99 4.25Q163.54 5.94 163.34 6.80L163.34 6.80L163.34 6.80Q162.70 6.88 162.02 7.03L162.02 7.03L162.02 7.03Q162.22 6.04 162.63 4.31L162.63 4.31L162.63 4.31Q163.10 2.37 163.26 1.59L163.26 1.59L163.26 1.59Q163.32 1.34 162.68 1.46L162.68 1.46L162.68 1.46Q162.38 1.51 162.13 1.63L162.13 1.63L162.13 1.63Q161.85 1.76 161.83 1.85L161.83 1.85L161.83 1.85Q161.66 2.61 161.18 4.64L161.18 4.64L161.18 4.64Q160.76 6.41 160.55 7.44L160.55 7.44L160.55 7.44Q160.41 7.49 160.38 7.50L160.38 7.50L160.38 7.50Q160.22 7.55 160.06 7.66L160.06 7.66L160.06 7.66Q159.80 7.82 159.94 7.91L159.94 7.91L159.94 7.91Q160.11 8.01 160.45 7.94L160.45 7.94L160.45 7.94Q160.13 9.65 160.00 11.08L160.00 11.08L160.00 11.08Q160.00 11.15 160.22 11.16L160.22 11.16L160.22 11.16Q160.43 11.17 160.71 11.12L160.71 11.12L160.71 11.12Q161.44 10.98 161.46 10.69L161.46 10.69L161.46 10.69Q161.58 9.26 161.92 7.53L161.92 7.53L161.92 7.53Q162.12 7.49 162.47 7.42L162.47 7.42L162.47 7.42Q162.85 7.36 163.22 7.33L163.22 7.33L163.22 7.33Q162.76 9.44 162.67 11.13L162.67 11.13L162.67 11.13Q162.67 11.20 162.89 11.21L162.89 11.21L162.89 11.21Q163.11 11.22 163.39 11.17L163.39 11.17L163.39 11.17Q164.12 11.03 164.13 10.74L164.13 10.74L164.13 10.74Q164.21 9.17 164.62 7.25L164.62 7.25L164.62 7.25Q164.96 7.18 165.22 7.02L165.22 7.02L165.22 7.02Q165.40 6.91 165.37 6.82L165.37 6.82L165.37 6.82Q165.34 6.72 165.14 6.71L165.14 6.71L165.14 6.71Q164.96 6.71 164.74 6.71L164.74 6.71L164.74 6.71Q164.95 5.79 165.41 4.07L165.41 4.07L165.41 4.07Q165.89 2.28 166.09 1.44L166.09 1.44L166.09 1.44Q166.14 1.19 165.50 1.31L165.50 1.31ZM177.31 1.42L177.31 1.42Q176.60 1.19 175.42 1.57L175.42 1.57L175.42 1.57Q173.91 2.06 173.35 3.77L173.35 3.77L173.35 3.77Q173.00 4.83 173.17 6.11L173.17 6.11L173.17 6.11Q173.26 6.76 173.53 7.16L173.53 7.16L173.53 7.16Q173.11 7.38 172.82 7.70L172.82 7.70L172.82 7.70Q171.82 8.80 171.93 10.01L171.93 10.01L171.93 10.01Q172.00 10.70 172.48 11.11L172.48 11.11L172.48 11.11Q172.87 11.44 173.70 11.42L173.70 11.42L173.70 11.42Q174.54 11.39 175.24 10.95L175.24 10.95L175.24 10.95Q175.99 10.49 176.29 9.76L176.29 9.76L176.29 9.76Q176.35 9.61 176.07 9.60L176.07 9.60L176.07 9.60Q175.90 9.59 175.71 9.63L175.71 9.63L175.71 9.63Q174.96 9.76 174.86 10.02L174.86 10.02L174.86 10.02Q174.66 10.51 174.31 10.80L174.31 10.80L174.31 10.80Q174.30 10.81 174.28 10.82L174.28 10.82L174.28 10.82Q174.23 10.81 174.23 10.81L174.23 10.81L174.23 10.81Q174.16 10.79 174.08 10.75L174.08 10.75L174.08 10.75Q173.91 10.68 173.76 10.52L173.76 10.52L173.76 10.52Q173.47 10.23 173.39 9.63L173.39 9.63L173.39 9.63Q173.30 8.83 173.93 7.86L173.93 7.86L173.93 7.86Q174.01 7.74 174.11 7.62L174.11 7.62L174.11 7.62Q174.32 7.70 174.60 7.72L174.60 7.72L174.60 7.72Q175 7.74 175.49 7.51L175.49 7.51L175.49 7.51Q175.91 7.32 175.76 7.18L175.76 7.18L175.76 7.18Q175.47 6.90 175.05 6.84L175.05 6.84L175.05 6.84Q175.01 6.79 174.97 6.75L174.97 6.75L174.97 6.75Q174.77 6.45 174.66 5.89L174.66 5.89L174.66 5.89Q174.47 4.89 174.65 4.00L174.65 4.00L174.65 4.00Q174.92 2.70 175.68 2.04L175.68 2.04L175.68 2.04Q175.74 2.00 175.83 1.93L175.83 1.93L175.83 1.93Q175.84 1.93 175.84 1.93L175.84 1.93L175.84 1.93Q175.97 1.94 175.95 1.93L175.95 1.93L175.95 1.93Q176.53 2.02 176.42 2.62L176.42 2.62L176.42 2.62Q176.37 2.86 177.00 2.75L177.00 2.75L177.00 2.75Q177.30 2.69 177.56 2.58L177.56 2.58L177.56 2.58Q177.84 2.45 177.86 2.36L177.86 2.36L177.86 2.36Q177.99 1.63 177.31 1.42L177.31 1.42ZM186.48 7.89L186.48 7.89Q186.38 7.90 185.48 7.84L185.48 7.84L185.48 7.84Q185.89 6.63 186.35 5.57L186.35 5.57L186.35 5.57Q186.51 5.18 187.06 3.95L187.06 3.95L187.06 3.95Q187.04 4.61 186.85 7.85L186.85 7.85L186.85 7.85Q186.68 7.87 186.48 7.89L186.48 7.89ZM188.30 1.18L188.30 1.18Q188.11 1.09 187.73 1.16L187.73 1.16L187.73 1.16Q187.09 1.27 186.87 1.55L186.87 1.55L186.87 1.55Q186.68 1.80 185.90 3.58L185.90 3.58L185.90 3.58Q185.76 3.90 185.40 4.70L185.40 4.70L185.40 4.70Q185.08 5.42 184.91 5.83L184.91 5.83L184.91 5.83Q184.49 6.79 184.11 7.86L184.11 7.86L184.11 7.86Q183.19 7.97 182.54 8.37L182.54 8.37L182.54 8.37Q182.36 8.48 182.39 8.58L182.39 8.58L182.39 8.58Q182.42 8.67 182.62 8.68L182.62 8.68L182.62 8.68Q183.14 8.70 183.61 8.43L183.61 8.43L183.61 8.43Q183.76 8.41 183.80 8.41L183.80 8.41L183.80 8.41Q183.87 8.41 183.93 8.41L183.93 8.41L183.93 8.41Q183.61 9.39 183.29 10.53L183.29 10.53L183.29 10.53Q183.22 10.79 183.87 10.67L183.87 10.67L183.87 10.67Q184.17 10.62 184.43 10.49L184.43 10.49L184.43 10.49Q184.70 10.37 184.73 10.27L184.73 10.27L184.73 10.27Q184.99 9.32 185.27 8.48L185.27 8.48L185.27 8.48Q185.56 8.50 185.76 8.47L185.76 8.47L185.76 8.47Q186.46 8.39 186.82 8.46L186.82 8.46L186.82 8.46Q186.71 10.55 186.71 12.02L186.71 12.02L186.71 12.02Q186.71 12.10 186.94 12.11L186.94 12.11L186.94 12.11Q187.15 12.12 187.44 12.06L187.44 12.06L187.44 12.06Q188.17 11.91 188.17 11.62L188.17 11.62L188.17 11.62Q188.17 9.90 188.38 6.45L188.38 6.45L188.38 6.45Q188.58 3.00 188.58 1.27L188.58 1.27L188.58 1.27Q188.58 1.18 188.30 1.18L188.30 1.18ZM198.43 11.33L198.43 11.33Q197.39 11.36 196.94 11.16L196.94 11.16L196.94 11.16Q197.80 6.57 198.91 2.08L198.91 2.08L198.91 2.08Q198.98 1.83 198.33 1.95L198.33 1.95L198.33 1.95Q198.03 2.00 197.78 2.12L197.78 2.12L197.78 2.12Q197.50 2.25 197.48 2.34L197.48 2.34L197.48 2.34Q196.36 6.83 195.49 11.47L195.49 11.47L195.49 11.47Q195.41 11.56 195.47 11.61L195.47 11.61L195.47 11.61Q195.47 11.63 195.47 11.70L195.47 11.70L195.47 11.70Q195.46 11.74 195.45 11.78L195.45 11.78L195.45 11.78Q195.43 11.94 196.08 11.83L196.08 11.83L196.08 11.83Q196.57 11.95 197.48 11.92L197.48 11.92L197.48 11.92Q198.08 11.91 198.51 11.65L198.51 11.65L198.51 11.65Q198.69 11.54 198.67 11.44L198.67 11.44L198.67 11.44Q198.64 11.33 198.43 11.33L198.43 11.33ZM210.77 2.35L210.77 2.35Q209.82 2.17 208.81 2.15L208.81 2.15L208.81 2.15Q208.71 2.03 208.24 2.11L208.24 2.11L208.24 2.11Q208.14 2.13 208.02 2.16L208.02 2.16L208.02 2.16Q206.96 2.22 205.92 2.46L205.92 2.46L205.92 2.46Q205.18 2.63 205.25 2.88L205.25 2.88L205.25 2.88Q205.30 3.08 206.02 2.91L206.02 2.91L206.02 2.91Q206.03 2.91 206.04 2.90L206.04 2.90L206.04 2.90Q206.06 2.90 206.07 2.89L206.07 2.89L206.07 2.89Q206.14 2.88 206.30 2.85L206.30 2.85L206.30 2.85Q206.47 2.82 206.69 2.80L206.69 2.80L206.69 2.80Q206.98 2.76 207.31 2.75L207.31 2.75L207.31 2.75Q205.89 7.40 205.50 10.96L205.50 10.96L205.50 10.96Q205.49 11.02 205.71 11.03L205.71 11.03L205.71 11.03Q205.93 11.04 206.21 10.99L206.21 10.99L206.21 10.99Q206.93 10.86 206.96 10.56L206.96 10.56L206.96 10.56Q207.33 7.19 208.65 2.78L208.65 2.78L208.65 2.78Q209.13 2.82 209.56 2.91L209.56 2.91L209.56 2.91Q210 2.99 210.59 2.72L210.59 2.72L210.59 2.72Q210.75 2.65 210.84 2.54L210.84 2.54L210.84 2.54Q210.98 2.39 210.77 2.35L210.77 2.35ZM221.72 1.31L221.72 1.31Q221.41 1.36 221.16 1.48L221.16 1.48L221.16 1.48Q220.88 1.61 220.86 1.70L220.86 1.70L220.86 1.70Q220.66 2.55 220.21 4.25L220.21 4.25L220.21 4.25Q219.75 5.94 219.56 6.80L219.56 6.80L219.56 6.80Q218.91 6.88 218.23 7.03L218.23 7.03L218.23 7.03Q218.44 6.04 218.85 4.31L218.85 4.31L218.85 4.31Q219.31 2.37 219.47 1.59L219.47 1.59L219.47 1.59Q219.53 1.34 218.89 1.46L218.89 1.46L218.89 1.46Q218.59 1.51 218.34 1.63L218.34 1.63L218.34 1.63Q218.06 1.76 218.04 1.85L218.04 1.85L218.04 1.85Q217.87 2.61 217.39 4.64L217.39 4.64L217.39 4.64Q216.97 6.41 216.76 7.44L216.76 7.44L216.76 7.44Q216.62 7.49 216.59 7.50L216.59 7.50L216.59 7.50Q216.43 7.55 216.27 7.66L216.27 7.66L216.27 7.66Q216.02 7.82 216.15 7.91L216.15 7.91L216.15 7.91Q216.32 8.01 216.66 7.94L216.66 7.94L216.66 7.94Q216.34 9.65 216.21 11.08L216.21 11.08L216.21 11.08Q216.21 11.15 216.43 11.16L216.43 11.16L216.43 11.16Q216.64 11.17 216.92 11.12L216.92 11.12L216.92 11.12Q217.65 10.98 217.67 10.69L217.67 10.69L217.67 10.69Q217.79 9.26 218.13 7.53L218.13 7.53L218.13 7.53Q218.33 7.49 218.68 7.42L218.68 7.42L218.68 7.42Q219.06 7.36 219.43 7.33L219.43 7.33L219.43 7.33Q218.97 9.44 218.88 11.13L218.88 11.13L218.88 11.13Q218.88 11.20 219.11 11.21L219.11 11.21L219.11 11.21Q219.32 11.22 219.60 11.17L219.60 11.17L219.60 11.17Q220.33 11.03 220.34 10.74L220.34 10.74L220.34 10.74Q220.42 9.17 220.83 7.25L220.83 7.25L220.83 7.25Q221.17 7.18 221.43 7.02L221.43 7.02L221.43 7.02Q221.61 6.91 221.58 6.82L221.58 6.82L221.58 6.82Q221.55 6.72 221.35 6.71L221.35 6.71L221.35 6.71Q221.18 6.71 220.95 6.71L220.95 6.71L220.95 6.71Q221.16 5.79 221.62 4.07L221.62 4.07L221.62 4.07Q222.10 2.28 222.30 1.44L222.30 1.44L222.30 1.44Q222.35 1.19 221.72 1.31L221.72 1.31ZM234.68 1.12L234.68 1.12Q234.65 0.90 233.91 1.07L233.91 1.07L233.91 1.07Q233.18 1.25 233.22 1.51L233.22 1.51L233.22 1.51Q233.41 2.73 233.18 4.12L233.18 4.12L233.18 4.12Q232.91 5.76 232.16 6.75L232.16 6.75L232.16 6.75Q232.01 6.95 231.76 7.16L231.76 7.16L231.76 7.16Q231.69 7.23 231.58 7.29L231.58 7.29L231.58 7.29Q231.59 7.29 231.51 7.34L231.51 7.34L231.50 7.34L231.50 7.34Q231.50 7.34 231.50 7.34L231.50 7.34L231.50 7.34Q231.42 7.36 231.36 7.38L231.36 7.38L231.35 7.37L231.35 7.37Q231.34 7.37 231.33 7.37L231.33 7.37L231.33 7.37Q231.30 7.36 231.23 7.35L231.23 7.35L231.23 7.35Q231.23 7.35 231.20 7.33L231.20 7.33L231.20 7.33Q231.19 7.33 231.17 7.33L231.17 7.33L231.17 7.33Q230.58 7.06 230.58 5.83L230.58 5.83L230.58 5.83Q230.58 4.47 231.55 1.59L231.55 1.59L231.55 1.59Q231.63 1.34 230.96 1.46L230.96 1.46L230.96 1.46Q230.19 1.60 230.10 1.85L230.10 1.85L230.10 1.85Q229.24 4.44 229.13 5.87L229.13 5.87L229.13 5.87Q229.04 7.12 229.55 7.65L229.55 7.65L229.55 7.65Q229.82 7.94 230.43 7.96L230.43 7.96L230.43 7.96Q230.58 7.97 230.73 7.96L230.73 7.96L230.73 7.96Q230.68 8.59 230.15 10.68L230.15 10.68L230.15 10.68Q230.09 10.94 230.73 10.82L230.73 10.82L230.73 10.82Q231.04 10.77 231.29 10.65L231.29 10.65L231.29 10.65Q231.57 10.52 231.59 10.42L231.59 10.42L231.59 10.42Q232.13 8.28 232.20 7.59L232.20 7.59L232.20 7.59Q232.24 7.57 232.24 7.57L232.24 7.57L232.24 7.57Q233.83 6.90 234.45 4.67L234.45 4.67L234.45 4.67Q234.95 2.84 234.68 1.12L234.68 1.12Z"></path></g></svg>